<svg xmlns="http://www.w3.org/2000/svg" width="20" height="20" viewBox="0 0 20 20">
    <g fill="#FFF" fill-rule="nonzero">
        <path d="M13.336.001a6.06 6.06 0 0 0-6.06 6.06c0 .78.162 1.517.431 2.2L.344 15.624c-.212.213-.344.415-.344.74v1.819a1.24 1.24 0 0 0 1.212 1.212H3.03c.325 0 .53-.13.743-.342l.87-.87h1.42c.67 0 1.212-.543 1.212-1.212v-1.212h1.212c.67 0 1.212-.543 1.212-1.212v-1.42l1.436-1.438c.684.27 1.42.433 2.2.433a6.062 6.062 0 0 0 0-12.12zm0 10.91a4.8 4.8 0 0 1-2.45-.687l-.208.208-.682.682-1.154 1.155a1.211 1.211 0 0 0-.355.857v1.42H7.275c-.67 0-1.213.543-1.213 1.213v1.212H4.643c-.321 0-.63.128-.857.355l-.86.86-1.712-.003-.002-1.727 7.07-7.058V9.4l.89-.89a4.798 4.798 0 0 1-.685-2.448 4.85 4.85 0 1 1 4.849 4.85z"/>
        <path d="M16.86 4.995a10.733 10.733 0 0 0-2.457-2.457.582.582 0 0 0-.535-.077c-.841.296-1.418.872-1.712 1.714a.577.577 0 0 0 .077.534 10.749 10.749 0 0 0 2.456 2.456c.156.112.354.14.535.078.843-.295 1.419-.871 1.715-1.714a.592.592 0 0 0 .033-.193.594.594 0 0 0-.111-.341zm-1.818 1.679a10.339 10.339 0 0 1-2.315-2.299c.235-.668.674-1.107 1.323-1.346a10.151 10.151 0 0 1 2.312 2.31c-.237.663-.674 1.1-1.32 1.335z"/>
    </g>
</svg>
