<svg height="512" viewBox="0 0 64 64" width="512" xmlns="http://www.w3.org/2000/svg" xmlns:xlink="http://www.w3.org/1999/xlink"><linearGradient id="New_Gradient_Swatch_1" gradientUnits="userSpaceOnUse" x1="45" x2="45" y1="-6.45" y2="62.659"><stop offset="0" stop-color="#fff33b"/><stop offset=".014" stop-color="#fee72e"/><stop offset=".042" stop-color="#fed51b"/><stop offset=".07" stop-color="#fdca10"/><stop offset=".1" stop-color="#fdc70c"/><stop offset=".4" stop-color="#f3903f"/><stop offset=".8" stop-color="#ed683c"/><stop offset="1" stop-color="#e93e3a"/></linearGradient><linearGradient id="New_Gradient_Swatch_1-2" x1="18" x2="18" xlink:href="#New_Gradient_Swatch_1" y1="-6.45" y2="62.659"/><linearGradient id="New_Gradient_Swatch_1-4" x1="15.646" x2="15.646" xlink:href="#New_Gradient_Swatch_1" y1="-6.45" y2="62.659"/><linearGradient id="New_Gradient_Swatch_1-5" x1="48.354" x2="48.354" xlink:href="#New_Gradient_Swatch_1" y1="-6.45" y2="62.659"/><g id="exchange-money-financial-dollar-bitcoin"><path d="m45 28a17 17 0 1 0 17 17 17.024 17.024 0 0 0 -17-17zm0 32a15 15 0 1 1 15-15 15.018 15.018 0 0 1 -15 15z" fill="url(#New_Gradient_Swatch_1)"/><path d="m18 2a16 16 0 1 0 16 16 16.021 16.021 0 0 0 -16-16zm0 30a14 14 0 1 1 14-14 14.015 14.015 0 0 1 -14 14z" fill="url(#New_Gradient_Swatch_1-2)"/><path d="m23 16a2.986 2.986 0 0 0 -2.01-2.82l.01-2.18h-2l-.01 2h-2l.01-2h-2l-.01 2h-1.99v2h2v6h-2v2h1.99l-.01 1.96 2 .01.01-1.97h2l-.01 1.96 2 .01.02-2.15a3.01 3.01 0 0 0 2-2.82 2.974 2.974 0 0 0 -.78-2 2.974 2.974 0 0 0 .78-2zm-3 5h-3v-2h3a1 1 0 0 1 0 2zm0-4h-3v-2h3a1 1 0 0 1 0 2z" fill="url(#New_Gradient_Swatch_1-2)"/><path d="m7.146 37.56 2.147 2.147 1.414-1.414-4-4a1 1 0 0 0 -1.414 0l-4 4 1.414 1.414 2.4-2.4a25.031 25.031 0 0 0 24.893 22.693v-2a23.03 23.03 0 0 1 -22.854-20.44z" fill="url(#New_Gradient_Swatch_1-4)"/><path d="m56.854 26.44-2.147-2.147-1.414 1.414 4 4a1 1 0 0 0 1.414 0l4-4-1.414-1.414-2.4 2.4a25.031 25.031 0 0 0 -24.893-22.693v2a23.03 23.03 0 0 1 22.854 20.44z" fill="url(#New_Gradient_Swatch_1-5)"/><path d="m49 48a4 4 0 0 1 -3 3.86v2.14h-2v-2.14a4 4 0 0 1 -3-3.86h2a2 2 0 1 0 2-2 3.993 3.993 0 0 1 -1-7.86v-2.14h2v2.14a4 4 0 0 1 3 3.86h-2a2 2 0 1 0 -2 2 4 4 0 0 1 4 4z" fill="url(#New_Gradient_Swatch_1)"/></g></svg>