<svg id="Capa_1" enable-background="new 0 0 512 512" height="512" viewBox="0 0 512 512" width="512" xmlns="http://www.w3.org/2000/svg"><g><path d="m256 31-9.619 59.429-80.381 75.571-67.5-75.001.901-58.199c1.8-1.199 3.898-1.8 6.599-1.8z" fill="#ecf2ff"/><path d="m412.599 32.8-2.85 65.7-63.749 67.5-75-67.5-15-67.5h150c2.701 0 4.799.601 6.599 1.8z" fill="#d9e5ff"/><path d="m346 166-90 30-90-30 90-135z" fill="#d9e5ff"/><path d="m346 166-90-135v165z" fill="#bfd6ff"/><path d="m346 166-8.571 134.997-81.429 180.003-81.429-180.003-8.571-134.997z" fill="#ecf2ff"/><path d="m256 481 81.429-180.004 8.571-134.996h-90z" fill="#d9e5ff"/><g id="Diamond_12_"><g><path d="m512 166-83.5 30-82.5-30 66.599-133.2c3.001 1.199 4.801 3.3 5.402 4.2 32.699 43.5 58.299 76.5 91 120 1.8 2.101 2.999 5.1 2.999 9z" fill="#bfd6ff"/></g></g><path d="m166 166-82.5 30-83.5-30c0-3.9 1.199-6.899 2.999-9 32.701-43.5 58.301-76.5 91-120 .601-.901 2.401-3.001 5.402-4.2z" fill="#d9e5ff"/><path d="m512 166c0 2.999-.901 6.301-3.3 9.3-86.7 108.6-154.001 191.4-241 300-1.5 2.1-5.4 5.7-11.7 5.7l90-315z" fill="#b3c5ff"/><path d="m256 481c-6.301 0-10.201-3.6-11.7-5.7-86.999-108.6-154.3-191.4-241-300-2.399-2.999-3.3-6.301-3.3-9.3h166z" fill="#bfd6ff"/></g></svg>