<svg id="Icons" enable-background="new 0 0 512 512" height="512" viewBox="0 0 512 512" width="512" xmlns="http://www.w3.org/2000/svg"><g><circle cx="256" cy="256" fill="#6c53a2" r="256"/><g><g><g fill="#4fcae8"><path d="m111.705 221.791c2.762 0 5-2.239 5-5v-85.511c0-13.585 11.053-24.637 24.638-24.637h114.657c2.762 0 5-2.239 5-5s-2.238-5-5-5h-53.066v-43.823c0-2.761-2.238-5-5-5s-5 2.239-5 5v43.823h-51.591c-19.1 0-34.638 15.538-34.638 34.637v85.511c0 2.761 2.238 5 5 5z"/><path d="m153.168 383.283h-19.113c-9.566 0-17.35-7.783-17.35-17.35v-45.56c0-2.761-2.238-5-5-5s-5 2.239-5 5v45.56c0 15.081 12.269 27.35 27.35 27.35h19.113c9.793 0 17.761 7.967 17.761 17.76v38.984c0 2.761 2.238 5 5 5s5-2.239 5-5v-38.984c0-15.307-12.453-27.76-27.761-27.76z"/><path d="m396.075 114.65h-41.586v-37.418c0-2.761-2.238-5-5-5s-5 2.239-5 5v50.933c0 11.091-9.023 20.114-20.114 20.114h-91.266c-17.209 0-31.21 14.001-31.21 31.21v71.511h-37.023c-2.762 0-5 2.239-5 5s2.238 5 5 5h37.023v88.007c0 17.688 14.391 32.078 32.078 32.078h31.792v36.592c0 2.761 2.238 5 5 5s5-2.239 5-5v-36.592h68.72v68.943c0 2.761 2.238 5 5 5s5-2.239 5-5v-68.943h55.161c2.762 0 5-2.239 5-5s-2.238-5-5-5h-175.672c-12.174 0-22.078-9.904-22.078-22.078v-88.007h66.927c2.762 0 5-2.239 5-5s-2.238-5-5-5h-66.927v-71.511c0-11.695 9.515-21.21 21.21-21.21h91.266c16.605 0 30.114-13.509 30.114-30.114v-3.515h41.586c8.776 0 15.916 7.14 15.916 15.917v18.651c0 2.761 2.238 5 5 5s5-2.239 5-5v-18.651c-.001-14.291-11.627-25.917-25.917-25.917z"/></g><g fill="#cde6f6"><circle cx="197.934" cy="52.82" r="18.007"/><circle cx="349.49" cy="77.232" r="18.007"/><circle cx="256" cy="101.643" r="18.007"/><circle cx="175.929" cy="450.028" r="18.007"/><circle cx="349.49" cy="450.028" r="18.007"/><circle cx="270.77" cy="417.677" r="18.007"/><circle cx="409.65" cy="376.085" r="18.007"/><circle cx="416.992" cy="159.217" r="18.007"/></g></g><g><g><g><path d="m118.183 186.36h-32.459c-18.714 0-35.229 9.424-45.049 23.787-5.986 8.754-9.49 19.343-9.49 30.747v30.211c0 30.118 24.416 54.534 54.539 54.534h32.459z" fill="#f39e22"/><g><path d="m31.184 248.581h57.504v14.838h-57.504z" fill="#ea792e"/><path d="m31.184 248.581h57.504v5.825h-57.504z" fill="#dd5e26"/></g><g><path d="m88.687 272.737v14.834h-54.97c-.925-2.905-1.604-5.916-2.023-9.014-.265-1.908-.429-3.849-.482-5.82z" fill="#ea792e"/><path d="m88.687 272.737v5.82h-56.993c-.265-1.908-.429-3.849-.482-5.82z" fill="#dd5e26"/></g><g><path d="m102.664 296.888v14.838h-53.327c-3.011-2.693-5.719-5.719-8.065-9.019-1.325-1.855-2.534-3.801-3.618-5.82h65.01z" fill="#ea792e"/><path d="m102.664 296.888v5.82h-61.392c-1.325-1.855-2.534-3.801-3.618-5.82z" fill="#dd5e26"/></g><g><path d="m111.981 321.044v4.596h-26.256c-7.809 0-15.229-1.638-21.945-4.596z" fill="#ea792e"/><path d="m111.981 321.044v4.596h-26.256c-7.809 0-15.229-1.638-21.945-4.596z" fill="#dd5e26"/></g><g><path d="m88.687 224.43v14.834h-57.48c.092-3.079.434-6.085 1.017-9.014.125-.636.26-1.267.414-1.898l1.079-3.922z" fill="#ea792e"/><path d="m88.687 224.43v5.82h-56.463c.125-.636.26-1.267.414-1.898l1.079-3.922z" fill="#dd5e26"/></g><g><path d="m103.189 200.274v14.838h-65.54c.92-1.715 1.932-3.372 3.026-4.967.959-1.397 1.98-2.751 3.059-4.052 1.72-2.076 3.594-4.023 5.603-5.82h53.852z" fill="#ea792e"/><path d="m103.189 200.274v5.82h-59.455c1.72-2.076 3.594-4.023 5.603-5.82z" fill="#dd5e26"/></g><g><path d="m114.404 188.596v2.361h-50.624c6.711-2.958 14.135-4.596 21.945-4.596h13.186c5.381-.001 10.584.78 15.493 2.235z" fill="#ea792e"/></g></g><path d="m175.929 240.894v30.211c0 4.593-.568 9.052-1.64 13.314-5.94 23.68-27.369 41.22-52.899 41.22h-13.189c-30.123 0-54.539-24.416-54.539-54.534v-30.211c0-11.404 3.503-21.993 9.49-30.747 9.82-14.363 26.335-23.787 45.049-23.787h13.189c30.123 0 54.539 24.416 54.539 54.534z" fill="#f9c744"/><path d="m175.929 240.894v30.211c0 4.593-.568 9.052-1.64 13.314-8.05 2.749-16.594 4.225-25.445 4.225-42.3 0-77.585-33.71-85.691-78.498 9.82-14.363 26.335-23.787 45.049-23.787h13.189c30.122.001 54.538 24.417 54.538 54.535z" fill="#fad98f"/><path d="m136.741 212.809c-3.277 2.069-4.257 6.402-2.188 9.679l12.31 19.501c2.069 3.277 6.402 4.257 9.679 2.188 3.277-2.069 4.257-6.402 2.188-9.679l-12.31-19.501c-2.068-3.277-6.402-4.256-9.679-2.188z" fill="#faefdc"/><g><path d="m120.813 192.453h-12.035c-17.076 0-32.146 8.6-41.108 21.706-5.463 7.988-8.659 17.65-8.659 28.057v27.568c0 27.483 22.28 49.763 49.767 49.763h12.035c23.296 0 42.85-16.005 48.271-37.613.978-3.89 1.496-7.958 1.496-12.149v-27.568c0-27.484-22.28-49.764-49.767-49.764zm47.68 76.815c0 4.035-.499 7.951-1.44 11.695-5.217 20.8-24.04 36.206-46.465 36.206h-11.584c-26.459 0-47.905-21.446-47.905-47.901v-26.537c0-10.017 3.077-19.318 8.335-27.007 8.626-12.616 23.132-20.894 39.57-20.894h11.584c26.459 0 47.905 21.446 47.905 47.901z" fill="#dd5e26"/><path d="m120.588 194.831h-11.584c-16.438 0-30.944 8.278-39.57 20.894-5.258 7.689-8.335 16.99-8.335 27.007v26.537c0 26.455 21.446 47.901 47.905 47.901h11.584c22.424 0 41.247-15.406 46.465-36.206.941-3.744 1.44-7.66 1.44-11.695v-26.537c0-26.455-21.446-47.901-47.905-47.901zm42.945 73.212c0 3.662-.453 7.216-1.307 10.615-4.735 18.878-21.82 32.862-42.172 32.862h-10.514c-24.015 0-43.48-19.465-43.48-43.476v-24.085c0-9.092 2.793-17.534 7.565-24.512 7.829-11.45 20.995-18.964 35.914-18.964h10.514c24.015 0 43.48 19.465 43.48 43.476z" fill="#ea792e"/></g></g><g><path d="m134.222 252.987h-.639l2.98-4.402h-.004c1.313-1.784 2.091-3.988 2.091-6.375v-4.824c0-5.953-4.824-10.777-10.777-10.777h-1.323v-12.698c0-2.07-1.678-3.753-3.753-3.753h-3.852c-2.074 0-3.753 1.683-3.753 3.753v12.698h-6.219v-12.698c0-2.07-1.678-3.753-3.753-3.753h-3.852c-2.074 0-3.753 1.683-3.753 3.753v12.698h-14.71c-2.074 0-3.753 1.678-3.753 3.753v3.852c0 2.074 1.678 3.753 3.753 3.753h8.28v36.066h-8.28c-2.074 0-3.753 1.678-3.753 3.753v3.852c0 2.074 1.678 3.753 3.753 3.753h14.71v12.698c0 2.07 1.678 3.753 3.753 3.753h3.852c.189 0 .373-.013.553-.04 1.813-.27 3.199-1.831 3.199-3.712v-12.7h6.219v12.698c0 2.07 1.678 3.753 3.753 3.753h3.852c.189 0 .373-.013.553-.04 1.813-.27 3.199-1.831 3.199-3.712v-12.699h7.672c3.519 0 6.723-1.372 9.094-3.627 2.551-2.403 4.144-5.823 4.144-9.612v-5.926c.003-7.311-5.928-13.238-13.236-13.238zm-25.248-15.02h13.859c2.511 0 4.549 2.038 4.549 4.554v.751c0 2.047-1.35 3.771-3.199 4.347-.427.131-.882.202-1.35.202h-13.859zm24.875 29.915c0 2.344-1.309 4.383-3.24 5.422-.868.463-1.858.729-2.911.729h-18.724v-13.319h18.724c3.397 0 6.151 2.754 6.151 6.151z" fill="#dd5e26"/><path d="m131.019 257.703h-6.345c3.703 0 6.97-1.867 8.91-4.716.544-.792.981-1.66 1.291-2.587.373-1.089.576-2.259.576-3.474v-4.824c0-5.953-4.824-10.777-10.777-10.777h-1.323v-12.698c0-2.07-1.678-3.753-3.753-3.753h-3.856c-.184 0-.369.013-.549.04v16.411h-9.418v-12.698c0-2.07-1.683-3.753-3.753-3.753h-3.856c-.184 0-.369.013-.549.04v16.411h-17.914c-.185 0-.369.013-.549.04v2.848c0 2.074 1.678 3.753 3.753 3.753h8.28v40.781h-11.484c-.185 0-.369.013-.549.04v2.848c0 2.074 1.678 3.753 3.753 3.753h14.71v12.698c0 2.07 1.678 3.753 3.753 3.753h3.852c.189 0 .373-.013.553-.04v-16.409h9.418v12.698c0 2.07 1.678 3.753 3.753 3.753h3.852c.189 0 .373-.013.553-.04v-16.411h10.871c3.519 0 6.723-1.372 9.094-3.627.607-1.516.94-3.168.94-4.896v-5.926c.001-7.312-5.925-13.238-13.237-13.238zm-25.244-19.736h17.059c2.511 0 4.549 2.038 4.549 4.554v.751c0 8.905-4.293 9.265-7.753 9.265h-13.855zm28.074 29.915c0 8.77-2.133 10.867-9.351 10.867h-18.724v-18.035h21.923c3.397 0 6.151 2.754 6.151 6.151v1.017z" fill="#ea792e"/></g></g><g><path d="m456.711 231.008v89.989c0 5.822-4.719 10.541-10.541 10.541h-177.859c-5.822 0-10.541-4.719-10.541-10.541v-89.989c0-5.822 4.719-10.541 10.541-10.541h177.859c5.822 0 10.541 4.719 10.541 10.541z" fill="#50755c"/><path d="m469.711 218.008v89.989c0 5.822-4.719 10.541-10.541 10.541h-177.859c-5.822 0-10.541-4.719-10.541-10.541v-89.989c0-5.822 4.719-10.541 10.541-10.541h177.859c5.822 0 10.541 4.719 10.541 10.541z" fill="#528f66"/><g><g><path d="m482.71 205.012v89.98c0 5.83-4.72 10.55-10.54 10.55h-177.86c-5.82 0-10.54-4.72-10.54-10.55v-89.98c0-5.83 4.72-10.55 10.54-10.55h177.86c5.82 0 10.54 4.72 10.54 10.55z" fill="#50755c"/><path d="m482.71 205.012v89.98c0 5.83-4.72 10.55-10.54 10.55h-38.79c-1.2-.38-2.4-.78-3.58-1.2-47.836-16.47-84.677-59.247-93.21-109.88h135.58c5.82 0 10.54 4.72 10.54 10.55z" fill="#528f66"/></g><g><path d="m472.17 194.462h-177.86c-5.82 0-10.54 4.72-10.54 10.55v89.98c0 5.83 4.72 10.55 10.54 10.55h177.86c5.82 0 10.54-4.72 10.54-10.55v-89.98c0-5.83-4.72-10.55-10.54-10.55zm-.14 70.52c-14.57 3.83-26.05 15.3-29.87 29.88h-117.83c-3.83-14.58-15.31-26.05-29.88-29.88v-29.96c14.57-3.83 26.06-15.31 29.88-29.88h117.82c3.82 14.57 15.31 26.05 29.88 29.88z" fill="#53b976"/><path d="m416.992 250.002c0 16.212-11.441 29.764-26.7 32.999-2.275.493-4.632.747-7.055.747-18.635 0-33.747-15.112-33.747-33.747 0-4.254.788-8.328 2.226-12.073 4.854-12.681 17.14-21.682 31.521-21.682 18.643.001 33.755 15.113 33.755 33.756z" fill="#53b976"/><g fill="#78c795"><path d="m416.992 250.002c0 16.212-11.441 29.764-26.7 32.999-15.81-12.114-29-27.472-38.576-45.072 4.854-12.681 17.14-21.682 31.521-21.682 18.643 0 33.755 15.112 33.755 33.755z"/><path d="m482.71 205.012v89.98c0 5.83-4.72 10.55-10.54 10.55h-38.79c-8.609-2.755-16.96-6.331-24.88-10.68h33.66c3.82-14.58 15.3-26.05 29.87-29.88v-29.96c-14.57-3.83-26.06-15.31-29.88-29.88h-103.29c-.888-3.53-1.644-7.088-2.27-10.68h135.58c5.82 0 10.54 4.72 10.54 10.55z"/></g></g><g><path d="m395.926 267.434c-2.271 2.271-5.332 3.735-9.178 4.39v3.499c.029 2.182-1.503 3.713-3.684 3.684-2.119.027-3.725-1.529-3.683-3.684v-3.316c-4.22-.373-8.753-1.829-12.095-4.236-2.172-1.183-2.284-4.228-.828-6.017 1.506-1.772 3.028-1.288 5.065-.184 1.882 1.105 3.673 1.914 5.372 2.425 4.499 1.329 12.81 1.602 12.924-4.512-.213-3.937-5.173-4.268-8.719-5.465-5.337-1.566-9.131-2.046-12.555-6.016-1.412-1.678-2.118-3.929-2.118-6.754-.044-7.093 5.842-11.962 12.771-13.077v-3.499c-.042-2.155 1.564-3.71 3.683-3.684 2.182-.029 3.713 1.501 3.683 3.684v3.377c3.684.491 7.143 1.883 10.376 4.175 1.241.832 1.709 1.836 1.719 3.316.066 1.757-1.338 3.887-3.131 3.868-1.197-.026-1.67-.295-2.886-.982-1.679-1.064-3.183-1.862-4.513-2.394-4.034-1.62-12.197-1.155-12.187 4.605.2 4.343 5.259 4.724 9.086 5.894 2.988.737 5.434 1.484 7.338 2.241 1.903.758 3.539 1.965 4.911 3.622 3.246 3.919 2.573 11.497-1.351 15.04z" fill="#50755c"/></g></g></g></g></g></svg>