<svg id="Layer_1" enable-background="new 0 0 464 464" height="512" viewBox="0 0 464 464" width="512" xmlns="http://www.w3.org/2000/svg"><path d="m400 17c13.25 0 24 10.75 24 24v399c0 13.25-10.75 24-24 24h-336c-13.25 0-24-10.75-24-24v-399c0-13.25 10.75-24 24-24z" fill="#80aaff"/><path d="m75 28v425c0 6.075-4.925 11-11 11-13.255 0-24-10.745-24-24v-399c0-13.255 10.745-24 24-24 6.075 0 11 4.925 11 11z" fill="#9cbcff"/><path d="m88 17v383c0 8.84 7.16 16 16 16h197l75-75v-324z" fill="#eef7ff"/><path d="m376 163.703v177.297l-75 75h-197c-8.837 0-16-7.163-16-16v-140.831c0-9.148 7.659-16.453 16.795-15.972 89.817 4.731 177.883-26.846 244.062-90.965 10.157-9.841 27.143-2.672 27.143 11.471z" fill="#cbe3fa"/><path d="m376 341-75 75v-59c0-8.84 7.16-16 16-16z" fill="#9ec7f0"/><path d="m264 345h-43.84c-4.418 0-8-3.582-8-8s3.582-8 8-8h43.84c4.418 0 8 3.582 8 8s-3.582 8-8 8z" fill="#6e6f80"/><path d="m143.213 355.527-12.87-12.87c-3.124-3.125-3.124-8.189 0-11.314 3.125-3.123 8.189-3.123 11.314 0l7.213 7.214 28.343-28.344c3.125-3.123 8.189-3.123 11.314 0 3.124 3.125 3.124 8.189 0 11.314l-34 34c-3.126 3.125-8.189 3.123-11.314 0z" fill="#9ceb63"/><path d="m328 265h-107.84c-4.418 0-8-3.582-8-8s3.582-8 8-8h107.84c4.418 0 8 3.582 8 8s-3.582 8-8 8z" fill="#6e6f80"/><path d="m143.213 275.527-12.87-12.87c-3.124-3.125-3.124-8.189 0-11.314 3.125-3.123 8.189-3.123 11.314 0l7.213 7.214 28.343-28.344c3.125-3.123 8.189-3.123 11.314 0 3.124 3.125 3.124 8.189 0 11.314l-34 34c-3.126 3.125-8.189 3.123-11.314 0z" fill="#9ceb63"/><path d="m328 185h-107.84c-4.418 0-8-3.582-8-8s3.582-8 8-8h107.84c4.418 0 8 3.582 8 8s-3.582 8-8 8z" fill="#6e6f80"/><path d="m143.213 195.527-12.87-12.87c-3.124-3.125-3.124-8.189 0-11.314 3.125-3.123 8.189-3.123 11.314 0l7.213 7.214 28.343-28.344c3.125-3.123 8.189-3.123 11.314 0 3.124 3.125 3.124 8.189 0 11.314l-34 34c-3.126 3.125-8.189 3.123-11.314 0z" fill="#befa91"/><path d="m277 109h-90c-13.233 0-24-10.767-24-24v-23c0-4.418 3.582-8 8-8s8 3.582 8 8v23c0 4.411 3.589 8 8 8h90c4.411 0 8-3.589 8-8v-23c0-4.418 3.582-8 8-8s8 3.582 8 8v23c0 13.233-10.767 24-24 24z" fill="#b5d5f5"/><path d="m315 48c0 8.84-7.16 16-16 16h-134c-8.84 0-16-7.16-16-16v-32c0-8.84 7.16-16 16-16h134c8.84 0 16 7.16 16 16z" fill="#585966"/><path d="m299 0c12.292 0 11.38 17 .408 17h-78.408c-23.216 0-42.5 16.832-46.315 38.958-.806 4.674-4.942 8.042-9.685 8.042-8.837 0-16-7.163-16-16v-32c0-8.837 7.163-16 16-16z" fill="#6e6f80"/></svg>