<?xml version="1.0"?>
<svg xmlns="http://www.w3.org/2000/svg" id="Filled_Outline" data-name="Filled Outline" viewBox="0 0 64 64" width="512" height="512"><path d="M38.955,11.1a6.152,6.152,0,0,0-8.425.374l-1.252,1.252h0L26.93,15.07l-1.894,1.894L10.717,31.283a3.881,3.881,0,0,0,.176,5.48l16.971-16.97.031-.032a1.99,1.99,0,0,1,2.822.056,5.871,5.871,0,0,0,.9.73A6,6,0,0,0,38.955,11.1Zm-2.606,5.868a2,2,0,1,1,0-2.828A2,2,0,0,1,36.349,16.964Z" style="fill:#f80"/><path d="M3,33v8H3a6,6,0,0,1,6,6H9a6,6,0,0,1-6,6H3v8H61V53h0a6,6,0,0,1-6-6h0a6,6,0,0,1,6-6h0V33Z" style="fill:#02998a"/><path d="M19.307,3.008a6,6,0,0,0-1.495,11.871A5.915,5.915,0,0,0,18.965,15,1.988,1.988,0,0,1,21,16.956V41a3.881,3.881,0,0,0,4-3.75V9.23A6.152,6.152,0,0,0,19.307,3.008ZM19,11a2,2,0,1,1,2-2A2,2,0,0,1,19,11Z" style="fill:#fdb62f"/><path d="M34.935,18.55a2.978,2.978,0,0,0,2.121-.879h0a3,3,0,0,0,0-4.242,3.072,3.072,0,0,0-4.242,0,3,3,0,0,0,2.121,5.121Zm-.707-3.707a1,1,0,0,1,1.414,1.414h0a1.022,1.022,0,0,1-1.414,0,1,1,0,0,1,0-1.414Z"/><path d="M62,52H61a5,5,0,0,1,0-10h1V32H26V23.071l2.6-2.6a.994.994,0,0,1,1.411.061,6.963,6.963,0,0,0,1.053.853,7,7,0,0,0,10.865-5.618,7,7,0,0,0-2.306-5.409,7.111,7.111,0,0,0-9.8.408L26,14.586V9.23a7.114,7.114,0,0,0-6.644-7.221,7,7,0,0,0-1.744,13.849A6.877,6.877,0,0,0,18.959,16,1,1,0,0,1,20,17v3.586l-9.99,9.99A4.533,4.533,0,0,0,9.056,32H2V42H3A5,5,0,0,1,3,52H2V62H62ZM31.237,12.177a5.182,5.182,0,0,1,7.048-.34,5,5,0,0,1-6.116,7.876,4.907,4.907,0,0,1-.749-.607,2.984,2.984,0,0,0-4.263-.02L26,20.243V17.414ZM18.972,14a4.953,4.953,0,0,1-.96-.1A5,5,0,0,1,19.005,4c.083,0,.168,0,.252.006A5.181,5.181,0,0,1,24,9.23V37.25a2.783,2.783,0,0,1-2,2.593V16.956A2.974,2.974,0,0,0,18.972,14ZM20,32H17.071L20,29.071Zm-8.576-.01L20,23.414v2.829L14.243,32H11.417ZM60,60H4V53.929A7,7,0,0,0,4,40.071V34H20v8h1a4.885,4.885,0,0,0,5-4.75V34H60v6.071a7,7,0,0,0,0,13.858Z"/><rect x="20" y="56" width="2" height="2"/><rect x="20" y="52" width="2" height="2"/><rect x="20" y="48" width="2" height="2"/><rect x="20" y="44" width="2" height="2"/><rect x="27.686" y="46" width="22.627" height="2" transform="translate(-21.811 41.343) rotate(-45)"/><path d="M34,46a4,4,0,1,0-4-4A4,4,0,0,0,34,46Zm0-6a2,2,0,1,1-2,2A2,2,0,0,1,34,40Z"/><path d="M44,48a4,4,0,1,0,4,4A4,4,0,0,0,44,48Zm0,6a2,2,0,1,1,2-2A2,2,0,0,1,44,54Z"/><path d="M19,6a3,3,0,1,0,3,3A3,3,0,0,0,19,6Zm0,4a1,1,0,1,1,1-1A1,1,0,0,1,19,10Z"/><path d="M23.71,21.29a1.047,1.047,0,0,0-1.42,0,.933.933,0,0,0-.21.33A1,1,0,0,0,22,22a1,1,0,1,0,2,0,1,1,0,0,0-.08-.38A1.032,1.032,0,0,0,23.71,21.29Z"/></svg>
